<?xml version="1.0" encoding="UTF-8"?>
<svg width="24px" height="24px" viewBox="0 0 24 24" version="1.1" xmlns="http://www.w3.org/2000/svg" xmlns:xlink="http://www.w3.org/1999/xlink">
    <title>帐号权限管理</title>
    <g id="帐号权限管理" stroke="none" stroke-width="1" fill="none" fill-rule="evenodd">
        <path d="M22,4 C22.5522847,4 23,4.44771525 23,5 L23,19 C23,19.5522847 22.5522847,20 22,20 L2,20 C1.44771525,20 1,19.5522847 1,19 L1,5 C1,4.44771525 1.44771525,4 2,4 L22,4 Z M9.71535714,13.1525926 C9.20220337,13.4893001 8.60724337,13.6676032 8,13.6666667 C7.39263521,13.6676735 6.79754206,13.4893676 6.28428571,13.1525926 C5.11900173,13.4687125 4.05771163,14.1003966 3.20796678,14.980416 L3,15.2055556 L3,16.2592593 C3,16.6342674 3.26871798,16.9441886 3.61736137,16.9932379 L3.7142857,17 L12.2857143,17 C12.6473293,17 12.9461819,16.7213295 12.9934794,16.3597734 L13,16.2592593 L13,15.2055556 C12.1183509,14.2078082 10.9778767,13.4949905 9.71535714,13.1525926 Z M18,13 L15,13 L15,14.5 L18,14.5 L18,13 Z M8,7 C7.33695877,7 6.70107398,7.27314737 6.23223304,7.75935279 C5.81027618,8.19693768 5.5547329,8.77483939 5.50784382,9.38730305 L5.5,9.5925926 L5.5,10.3333333 C5.5,11.7651827 6.61928812,12.9259259 8,12.9259259 C9.3254834,12.9259259 10.4100387,11.856185 10.4946823,10.503797 L10.5,10.3333333 L10.5,9.5925926 C10.5,8.90499429 10.2366079,8.24555822 9.76776696,7.75935279 C9.29892601,7.27314736 8.66304122,7 8,7 Z M21,10 L15,10 L15,11.5 L21,11.5 L21,10 Z" id="形状结合" fill="#1272FF" fill-rule="nonzero"></path>
    </g>
</svg>