<?xml version="1.0" encoding="UTF-8"?>
<svg width="24px" height="24px" viewBox="0 0 24 24" version="1.1" xmlns="http://www.w3.org/2000/svg" xmlns:xlink="http://www.w3.org/1999/xlink">
    <title>云平台</title>
    <g id="云平台" stroke="none" stroke-width="1" fill="none" fill-rule="evenodd">
        <g id="2.图标/5.运维类/云平台">
            <rect id="Rectangle" x="0" y="0" width="24" height="24"></rect>
            <g id="云平台" fill-rule="nonzero">
                <rect id="矩形" fill="#000000" opacity="0" x="0" y="0" width="24" height="24"></rect>
                <path d="M20.5368,19.3884 C20.3644798,19.3871811 20.1934807,19.4185309 20.0328,19.4808 L18.1488,17.7912 L18.1488,15.5976 C20.4576,15.1896 22.1532,13.2468 22.1988,10.9536 C22.2444,8.6592 20.6292,6.6516 18.3372,6.1572 C17.376,3.5436 14.8416,1.8 12,1.8 C9.1596,1.8 6.624,3.5436 5.664,6.156 C3.342,6.6564 1.716,8.706 1.8024,11.028 C1.8864,13.3512 3.6576,15.2832 6.0096,15.618 L6.0096,17.79 L5.172,18.5472 C5.01375349,18.4913511 4.84775005,18.4605798 4.68,18.456 C4.0992,18.456 3.5748,18.7968 3.3516,19.3224 C3.1296,19.8468 3.252,20.4504 3.6636,20.8524 C4.074,21.2544 4.692,21.3744 5.2284,21.1572 C5.89339637,20.8923558 6.25268702,20.1696388 6.0624,19.4796 L7.3296,18.3432 L7.3296,15.6696 L9.6336,15.6696 L9.6336,16.962 C8.99968003,17.2563976 8.68236537,17.9752333 8.892,18.642 C9.1032,19.3044 9.7788,19.716 10.4796,19.6116 C11.1740536,19.5145944 11.6924376,18.923177 11.6976,18.222 C11.6932992,17.7020121 11.4038576,17.2263693 10.944,16.9836 L10.944,15.672 L13.1952,15.672 L13.1952,18.3792 C12.6111878,18.6684298 12.3060218,19.3241378 12.4608,19.9572 C12.6168,20.5848 13.1928,21.0276 13.8552,21.0276 C14.5164,21.0276 15.0924,20.5848 15.2496,19.9572 C15.4043782,19.3241378 15.0992122,18.6684298 14.5152,18.3792 L14.5152,15.6756 L16.8708,15.6756 L16.8708,18.3492 L19.1748,20.4276 C19.0272,20.9532 19.206,21.516 19.6332,21.8688 C20.0592,22.2216 20.6568,22.2996 21.1632,22.0692 C21.6696,21.8388 21.9936,21.342 21.9924,20.796 C21.9852,20.016 21.3348,19.3896 20.5368,19.392 L20.5356,19.3884 L20.5368,19.3884 Z M11.6976,11.4444 L16.6464,11.4444 L16.6464,13.356 L11.6964,13.356 L11.6976,11.4432 L11.6976,11.4444 Z M8.1768,11.4444 L10.0872,11.4444 L10.0872,13.356 L8.1744,13.356 L8.1744,11.4432 L8.1768,11.4432 L8.1768,11.4444 Z" id="形状" fill="#1272FF"></path>
            </g>
        </g>
    </g>
</svg>