<?xml version="1.0" encoding="UTF-8"?>
<svg width="24px" height="24px" viewBox="0 0 24 24" version="1.1" xmlns="http://www.w3.org/2000/svg" xmlns:xlink="http://www.w3.org/1999/xlink">
    <title>数据库集群</title>
    <g id="数据库集群" stroke="none" stroke-width="1" fill="none" fill-rule="evenodd">
        <path d="M17,11.5 C20.0375661,11.5 22.5,13.9624339 22.5,17 C22.5,20.0375661 20.0375661,22.5 17,22.5 C13.9624339,22.5 11.5,20.0375661 11.5,17 C11.5,13.9624339 13.9624339,11.5 17,11.5 Z M2.47842166,14.6 C3.5837415,15.7366252 6.48984912,16.5823743 10.0062168,16.7178202 C10.0018803,16.8110486 10,16.9053047 10,17 C10,18.9470038 10.7948979,20.7083493 12.0778666,21.9772093 C11.7250075,21.9923592 11.3650346,22 11,22 C6.13677541,22 2.17195875,20.643816 2.0054447,18.9528498 L2,18.8421053 L2,14.8263158 C1.99976112,14.70032 2.0673929,14.5863922 2.17172726,14.5370372 C2.27606162,14.4876821 2.39684829,14.512479 2.47842166,14.6 Z M18,13 C17.4477153,13 17,13.4477153 17,14 L17.0024903,14.0711251 L17.0024903,14.0711251 L17.00985,14.1409068 L14.1409068,17.00985 C14.0948707,17.0033576 14.0478274,17 14,17 C13.4477153,17 13,17.4477153 13,18 C13,18.5522847 13.4477153,19 14,19 C14.2132807,19 14.4109665,18.9332304 14.5732948,18.8194538 L14.6662909,18.745705 L18.0978451,19.4319486 C18.2590257,19.7679766 18.6024169,20 19,20 C19.5522847,20 20,19.5522847 20,19 C20,18.6465928 19.8166729,18.3360039 19.5399303,18.1581449 L19.4319486,18.0978451 L18.745705,14.6662909 C18.9038518,14.489417 19,14.2559368 19,14 C19,13.4477153 18.5522847,13 18,13 Z M17.631,15.217 L18.235,18.235 L15.217,17.631 L17.631,15.217 Z M19.9930211,7.91179565 L20,7.98421053 L20.0007361,10.6739809 C19.0912936,10.2418215 18.073887,10 17,10 C13.7758108,10 11.0607436,12.1798108 10.2481317,15.1460992 C5.73413209,15.0157374 2.16328736,13.7136519 2.0054447,12.1107446 L2,12 L2,7.98421053 C1.99976111,7.85821474 2.06739289,7.74428697 2.17172725,7.69493188 C2.27606161,7.64557678 2.39684829,7.67037369 2.47842166,7.75789473 C3.68631635,9 7.0447373,9.89473685 11,9.89473685 C14.9552633,9.89473685 18.3136843,9 19.521579,7.75789473 C19.6895215,7.58564594 19.9475033,7.6830796 19.9930211,7.91179565 Z M11.0000006,2 C15.9705629,2 20.0000006,3.41383763 20.0000006,5.15789474 C20.0000006,6.28610188 18.2846098,7.32860827 15.5000006,7.89271185 C12.7153906,8.45681542 9.28461005,8.45681542 6.50000063,7.89271185 C3.71539082,7.32860827 2.00000063,6.28610188 2.00000063,5.15789474 C2.00000063,3.41383763 6.02943774,2 11.0000006,2 Z" id="形状结合" fill="#1272FF" fill-rule="nonzero"></path>
    </g>
</svg>