<?xml version="1.0" encoding="UTF-8"?>
<svg width="24px" height="24px" viewBox="0 0 24 24" version="1.1" xmlns="http://www.w3.org/2000/svg" xmlns:xlink="http://www.w3.org/1999/xlink">
    <title>ESXI</title>
    <g id="ESXI" stroke="none" stroke-width="1" fill="none" fill-rule="evenodd">
        <g fill-rule="nonzero">
            <rect id="矩形备份-89" fill="#D9DFE7" opacity="0" x="0" y="0" width="24" height="24" rx="4.8"></rect>
            <g id="编组-82" transform="translate(1.000000, 3.000000)" fill="#1272FF">
                <path d="M13,0 C14.1,0 15,0.934615386 15,2.07692307 L15,2.07692307 L15,8.39423078 C13.65,8.86153844 12.6,10.0038462 12.2,11.4576923 C10.6,12.0288462 9.49999999,13.5865385 9.49999999,15.4038462 C9.49999999,16.3903846 9.84999999,17.2730769 10.4,18 L10.4,18 L8.99999999,18 C7.89999999,18 6.99999999,17.0653846 6.99999999,15.9230769 L6.99999999,15.9230769 L6.99999999,2.07692307 C6.99999999,0.934615386 7.90000001,0 8.99999999,0 L8.99999999,0 Z M16.5,9.69230769 C17.85,9.69230769 18.95,10.575 19.35,11.7692308 C20.85,11.9769231 22,13.275 22,14.8846154 C22,16.5368819 20.7447066,17.8994653 19.1755899,17.9946852 L19,18 L13.5,18 C12.1,18 11,16.8576923 11,15.4038462 C11,13.95 12.1,12.8076923 13.5,12.8076923 C13.5,11.0942308 14.85,9.69230769 16.5,9.69230769 Z M6.3,0.467307693 C5.79999999,0.830769223 5.5,1.40192308 5.5,2.07692307 L5.5,2.07692307 L5.5,15.9230769 C5.5,16.5980769 5.80000001,17.1692308 6.3,17.5326923 L6.3,17.5326923 L1.05,15.4557692 C0.400000008,15.0923077 0,14.4173077 0,13.6384615 L0,13.6384615 L0,4.36153847 C0,3.58269231 0.400000008,2.90769229 1.05,2.54423076 L1.05,2.54423076 Z M19.65,13.4826923 C19.4785714,13.4826923 19.3806123,13.5589874 19.3561225,13.7115777 L19.35,13.7942308 L19.35,16.1826923 C19.35,16.3903846 19.45,16.4942308 19.65,16.4942308 C19.8214286,16.4942308 19.9193878,16.4179356 19.9438776,16.2653454 L19.95,16.1826923 L19.95,13.7942308 C19.95,13.5865385 19.85,13.4826923 19.65,13.4826923 Z M14.2,13.4826923 L13.2,13.4826923 C13.025,13.4826923 12.9265625,13.5621995 12.9046875,13.7559984 L12.9,13.8461539 L12.9,16.1307692 C12.9,16.3087912 12.9734694,16.410518 13.1204082,16.4359498 L13.2,16.4423077 L14.25,16.4423077 C14.45,16.4423077 14.55,16.3384616 14.55,16.1826923 C14.5071429,16.0491758 14.4642857,15.9538069 14.3269679,15.9292835 L14.25,15.9230769 L13.5,15.9230769 L13.5,15.3 L14.15,15.3 C14.35,15.2480769 14.45,15.1961538 14.45,14.9884615 C14.45,14.8104396 14.3765306,14.7087127 14.2295918,14.683281 L14.15,14.6769231 L13.5,14.6769231 L13.5,14.0538462 L14.2,14.0538462 C14.4,14.0019231 14.5,13.95 14.5,13.7423077 C14.45,13.5865385 14.4,13.4826923 14.2,13.4826923 Z M15.7,13.4307692 C15.05,13.4826923 14.75,13.7942308 14.7,14.3653846 C14.8,14.8326923 15.1,15.0923077 15.55,15.1442308 C15.9,15.2480769 16.05,15.3519231 16.05,15.5076923 C16.05,15.7153846 15.9,15.8711539 15.65,15.8711539 C15.55,15.8711539 15.4,15.8192308 15.25,15.7673077 C15.1,15.7153846 15,15.7153846 14.95,15.7153846 C14.8,15.7673077 14.7,15.8192308 14.7,16.0269231 C14.7,16.2865385 15,16.4423077 15.65,16.4423077 C16.3,16.4423077 16.6,16.1307693 16.75,15.5596154 C16.65,14.9884615 16.35,14.6769231 15.85,14.625 C15.55,14.5211539 15.4,14.4173077 15.4,14.3134616 C15.45,14.1576923 15.55,14.0538462 15.75,14.0538462 C15.8,14.0538462 15.9,14.0538462 16.05,14.1057692 C16.15,14.1576923 16.2,14.1576923 16.25,14.1576923 C16.4,14.1576923 16.5,14.0538462 16.5,13.8461539 C16.45,13.5865385 16.2,13.4826923 15.7,13.4307692 Z M18.65,13.4307692 C18.57,13.4307692 18.522,13.464 18.4548,13.5304615 L18.4,13.5865385 L17.9,14.3134616 L17.4,13.5865385 C17.35,13.4826923 17.25,13.4307692 17.15,13.4307692 C16.95,13.4307692 16.85,13.5346154 16.85,13.7423077 C16.85,13.78125 16.878125,13.8201923 16.9132813,13.8591346 L16.95,13.8980769 L17.6,14.8326923 L16.8,15.975 C16.8,16.0269231 16.75,16.0788462 16.75,16.1826923 C16.75,16.3384615 16.85,16.4423077 17.05,16.4423077 C17.125,16.4423077 17.2,16.413101 17.2539063,16.3765926 L17.3,16.3384616 L17.95,15.4038462 L18.6,16.3384616 C18.65,16.3903846 18.75,16.4423077 18.85,16.4423077 C19.05,16.4423077 19.15,16.3903846 19.2,16.2346154 C19.2,16.1567308 19.171875,16.1080529 19.1367188,16.0666767 L19.1,16.0269231 L18.3,14.8846154 L18.9,13.8980769 C18.95,13.8461539 18.95,13.7942308 18.95,13.7423077 C18.95,13.5346154 18.85,13.4307692 18.65,13.4307692 Z M12.25,6.57692307 L9.75000001,6.57692307 C9.35,6.57692307 9.00000001,6.9403846 9.00000001,7.35576923 C9.00000001,7.77115385 9.35,8.13461538 9.75000001,8.13461538 L9.75000001,8.13461538 L12.25,8.13461538 C12.65,8.13461538 13,7.77115385 13,7.35576923 C13,6.9403846 12.65,6.57692307 12.25,6.57692307 L12.25,6.57692307 Z M12.25,3.46153846 L9.75000001,3.46153846 C9.35,3.46153846 9.00000001,3.82499999 9.00000001,4.24038461 C9.00000001,4.65576923 9.35,5.01923076 9.75000001,5.01923076 L9.75000001,5.01923076 L12.25,5.01923076 C12.65,5.01923076 13,4.65576923 13,4.24038461 C13,3.82499999 12.65,3.46153846 12.25,3.46153846 L12.25,3.46153846 Z" id="形状结合"></path>
            </g>
        </g>
    </g>
</svg>