<?xml version="1.0" encoding="UTF-8"?>
<svg width="24px" height="24px" viewBox="0 0 24 24" version="1.1" xmlns="http://www.w3.org/2000/svg" xmlns:xlink="http://www.w3.org/1999/xlink">
    <title>IIS</title>
    <g id="IIS" stroke="none" stroke-width="1" fill="none" fill-rule="evenodd">
        <g id="编组" transform="translate(2.000000, 2.000000)" fill="#1272FF" fill-rule="nonzero">
            <path d="M17.8947368,14.7368421 C19.0526316,14.7368421 20,13.7894737 20,12.631579 L20,2.10526315 C20,0.947368422 19.0526316,0 17.8947368,0 L2.10526315,0 C0.947368422,0 0,0.947368422 0,2.10526315 L0,12.631579 C0,13.7894737 0.947368422,14.7368421 2.10526315,14.7368421 L8.94736841,14.7368421 L8.94736841,16.3157895 L7.10526316,16.3157895 C6.68421052,16.3157895 6.31578948,16.6842105 6.31578948,17.1052632 L6.31578948,17.3684211 L0.789473685,17.3684211 C0.368421045,17.3684211 0,17.7368421 0,18.1578948 C0,18.5789474 0.368421045,18.9473684 0.789473685,18.9473684 L6.31578948,18.9473684 L6.31578948,19.2105263 C6.31578948,19.631579 6.68421052,20 7.10526316,20 L12.3684211,20 C12.7894737,20 13.1578947,19.631579 13.1578947,19.2105263 L13.1578947,18.9473684 L19.2105263,18.9473684 C19.631579,18.9473684 20,18.5789474 20,18.1578948 C20,17.7368421 19.631579,17.3684211 19.2105263,17.3684211 L13.1578947,17.3684211 L13.1578947,17.1052632 C13.1578947,16.6842105 12.7894737,16.3157895 12.3684211,16.3157895 L10.5263158,16.3157895 L10.5263158,14.7368421 L17.8947368,14.7368421 Z M7.68421052,10 C7.68421052,10.368421 7.47368421,10.5263158 7.15789473,10.5263158 C6.84210526,10.5263158 6.63157895,10.368421 6.63157895,10 L6.63157895,5.78947367 C6.63157895,5.42105263 6.84210526,5.21052632 7.15789473,5.21052632 C7.52631578,5.21052632 7.68421052,5.42105263 7.68421052,5.78947367 L7.68421052,10 Z M9.42105262,10 C9.42105262,10.368421 9.21052632,10.5263158 8.89473684,10.5263158 C8.57894737,10.5263158 8.36842106,10.368421 8.36842106,10 L8.36842106,5.78947367 C8.36842106,5.42105263 8.57894737,5.21052632 8.89473684,5.21052632 C9.26315789,5.21052632 9.42105262,5.42105263 9.42105262,5.78947367 L9.42105262,10 Z M9.89473683,9.7368421 C9.89473683,9.42105262 10.0526316,9.26315789 10.368421,9.21052632 C10.4736842,9.21052632 10.6315789,9.26315789 10.8947368,9.31578948 C11.2105263,9.42105265 11.4210526,9.47368422 11.6315789,9.47368422 C12.1052632,9.47368422 12.3684211,9.26315791 12.3684211,8.84210527 C12.3684211,8.63157896 12.0526316,8.42105263 11.4210526,8.21052632 C10.5789474,8.15789475 10.0526316,7.68421054 9.89473683,6.78947369 C9.9473684,5.7368421 10.5789474,5.21052632 11.6842105,5.10526315 C12.631579,5.15789472 13.1052632,5.42105263 13.1052632,5.84210527 C13.1052632,6.21052631 12.9473684,6.36842105 12.631579,6.36842105 C12.5789474,6.36842105 12.4210527,6.31578948 12.2105263,6.26315788 C12,6.21052629 11.7894737,6.15789472 11.6315789,6.15789474 C11.2631579,6.15789474 11.0526316,6.31578948 11.0526316,6.63157895 C11.0526316,6.84210526 11.3157895,7 11.8947368,7.15789473 C12.7894737,7.21052631 13.368421,7.78947368 13.5263158,8.78947367 C13.4736842,9.84210526 12.8421053,10.368421 11.6315789,10.4210526 C10.4736842,10.5263158 9.89473683,10.2631579 9.89473683,9.7368421 L9.89473683,9.7368421 Z" id="形状"></path>
        </g>
    </g>
</svg>