<?xml version="1.0" encoding="UTF-8"?>
<svg width="24px" height="24px" viewBox="0 0 24 24" version="1.1" xmlns="http://www.w3.org/2000/svg" xmlns:xlink="http://www.w3.org/1999/xlink">
    <title>K8S集群</title>
    <g id="K8S集群" stroke="none" stroke-width="1" fill="none" fill-rule="evenodd">
        <g id="编组" transform="translate(2.000000, 2.000000)" fill="#1272FF" fill-rule="nonzero">
            <path d="M8.50309795,11.4172872 L8.50893136,11.4254459 L7.67641721,13.3941444 C6.87753354,12.8934475 6.26971499,12.1486752 5.94722116,11.2753255 L8.09559102,10.9187895 L8.0989244,10.9228689 C8.2318256,10.8989525 8.36739162,10.9485373 8.4517202,11.0519081 C8.53604878,11.1552789 8.55547107,11.2956802 8.50226459,11.4172872 L8.50309795,11.4172872 Z M7.80891947,9.68029619 C7.93924552,9.64536358 8.03938644,9.54308832 8.06952813,9.41413307 C8.09966982,9.28517783 8.05492702,9.15044322 7.9530886,9.06349714 L7.95475529,9.05452256 L6.32056085,7.62348351 C5.8220318,8.41794395 5.60798599,9.3523392 5.71221717,10.2791461 L7.80725278,9.68763903 L7.80891947,9.68029619 L7.80891947,9.68029619 Z M8.76310236,8.06487011 C8.87236479,8.14293895 9.01665483,8.15577374 9.1384995,8.0982622 C9.26034417,8.04075066 9.33995135,7.9222348 9.34561227,7.78992134 L9.35394573,7.78584197 L9.47894785,5.64825799 C8.53250166,5.75657589 7.64989741,6.17053795 6.9705719,6.82474505 L8.75976897,8.06731773 L8.76310236,8.06568599 L8.76310236,8.06487011 Z M9.39644645,10.3085174 L9.99895669,10.5932567 L10.6006336,10.3101492 L10.7506361,9.67376922 L10.3339624,9.16548112 L9.663951,9.16548112 L9.24727725,9.67376922 L9.39644645,10.3093333 L9.39644645,10.3085174 Z M10.6464677,7.78339436 C10.6522148,7.91584971 10.7320601,8.03442146 10.8541395,8.0917907 C10.9762188,8.14915994 11.1206564,8.13598639 11.229811,8.05752727 L11.2364777,8.05997488 L13.0148413,6.82556093 C12.3378567,6.17649266 11.4618191,5.76313865 10.5214656,5.64907385 L10.644801,7.7825785 L10.6464677,7.78339436 L10.6464677,7.78339436 Z M19.7099551,12.6541487 L14.89904,18.5129238 C14.6451906,18.820291 14.2627595,18.9984964 13.8590223,18.9975516 L6.14139112,19 C5.73766634,19.0002989 5.35554406,18.8214946 5.1022068,18.5137397 L0.288791649,12.6557805 C0.0379020009,12.348519 -0.0562774466,11.946063 0.0329539806,11.5625123 L1.74964982,4.25638076 C1.83965135,3.87292105 2.1038225,3.55146757 2.4688287,3.38095038 L9.42061354,0.128069693 C9.78557424,-0.0426898977 10.2098391,-0.0426898977 10.5747998,0.128069693 L17.5290847,3.37931864 C17.8940909,3.54983583 18.158262,3.87210519 18.2482636,4.25474903 L19.9666261,11.5608806 C20.0566276,11.9443403 19.9624594,12.3465651 19.7099551,12.6541487 Z M16.9690752,10.9759005 C16.9340746,10.9677418 16.8832404,10.9546879 16.8482398,10.9481609 C16.7032373,10.9212371 16.5857353,10.9277641 16.4490663,10.9171578 C16.1573947,10.8869705 15.9173906,10.8624944 15.7032203,10.7964087 C15.6157188,10.7637739 15.5532178,10.6617899 15.5232173,10.6201804 L15.3557144,10.572044 C15.4449885,9.93790803 15.4153358,9.29314634 15.2682129,8.66943108 C15.1208495,8.03936574 14.8564525,7.44118432 14.4881997,6.90470048 C14.5315337,6.86635451 14.6132018,6.79618953 14.6357022,6.77497687 C14.642369,6.70154841 14.6365355,6.62567234 14.7140368,6.54490103 C14.8782063,6.39396477 15.0840431,6.26913639 15.333214,6.11901598 C15.4515494,6.05048275 15.5607179,6.00724155 15.6790532,5.92157502 C15.7057203,5.9019941 15.7423877,5.87099098 15.7707215,5.84896244 C15.9707249,5.69313094 16.016559,5.42470912 15.8732232,5.24848082 C15.7298874,5.07225252 15.4515494,5.0559351 15.2523793,5.21176659 C15.2240455,5.23379513 15.1857115,5.26235064 15.1598777,5.28356331 C15.0482092,5.37820443 14.9790413,5.47121381 14.8848731,5.56911842 C14.6798696,5.77308637 14.5098667,5.94278768 14.3240302,6.06598432 C14.2431955,6.11167313 14.1248602,6.09617158 14.0715259,6.09290809 L13.9131899,6.20305078 C13.0016966,5.26659203 11.7739785,4.68589968 10.4581312,4.56885966 L10.448131,4.38692025 C10.3939634,4.33633621 10.3289623,4.29309499 10.3122954,4.18295231 C10.2939617,3.96429867 10.3247956,3.72851174 10.3597962,3.44458837 C10.3789631,3.31160127 10.4106304,3.20145859 10.4164638,3.05704928 C10.4172971,3.02441441 10.4156304,2.97627798 10.4156305,2.94119551 C10.4156305,2.69153875 10.2289606,2.48838668 9.99895669,2.48838668 C9.76978614,2.48838668 9.58311628,2.69153875 9.5831163,2.94119551 L9.58394964,2.95261771 C9.58394964,2.98606844 9.58228295,3.0276779 9.58394964,3.05704928 C9.58894972,3.20145859 9.62061692,3.31160127 9.63978393,3.44458837 C9.67478452,3.72851174 9.70478503,3.96429869 9.68645138,4.18376818 C9.66280321,4.2650705 9.61597264,4.33808849 9.55144908,4.3942631 L9.54144891,4.56641204 C8.21717826,4.67052477 6.97975778,5.25299635 6.06972325,6.20060316 C6.01925558,6.16643983 5.96925038,6.13162628 5.9197207,6.09617158 C5.84471942,6.10596204 5.76971815,6.12880646 5.67221649,6.07251129 C5.48637999,5.95013053 5.3163771,5.78042919 5.11137362,5.57646127 C5.01720536,5.47855666 4.94887086,5.38554728 4.8372023,5.29172202 C4.80701727,5.26699928 4.77617273,5.24305876 4.74470073,5.21992532 C4.66231286,5.15453778 4.56065223,5.11678549 4.4546958,5.11223025 C4.327079,5.10559453 4.20387894,5.15893247 4.1230235,5.25582367 C3.97968772,5.43205197 4.02552184,5.70128965 4.22552524,5.85712115 L4.23135866,5.86120052 L4.31802681,5.92891787 C4.43636216,6.0145844 4.54469733,6.05864148 4.66303268,6.12635882 C4.91220357,6.27729509 5.11804041,6.40212347 5.28220986,6.55224388 C5.34554428,6.61914537 5.35721114,6.7366309 5.36554462,6.78721495 L5.4988802,6.90388462 C4.76248802,7.98490353 4.45978799,9.29408317 4.64886576,10.5802027 L4.47552949,10.629155 C4.42969537,10.6878978 4.36469427,10.7792755 4.29635976,10.8061992 C4.08218946,10.8722848 3.84135203,10.8959451 3.55051377,10.9261324 C3.41384478,10.9375546 3.29634279,10.9310276 3.15050697,10.9579514 C3.1196731,10.9636625 3.07550569,10.9742688 3.03967175,10.9824275 L3.03633835,10.9840593 L3.03050493,10.985691 C2.78466741,11.0436179 2.62716473,11.2647191 2.67799894,11.481741 C2.72883314,11.6995788 2.96883722,11.83175 3.21550807,11.7795342 L3.22134149,11.7787183 L3.22967497,11.7762707 L3.3371768,11.7526105 C3.47884587,11.7150803 3.58218097,11.660417 3.71051649,11.6122805 C3.98552116,11.5160076 4.21385838,11.4352363 4.43552881,11.4034173 C4.52886374,11.3960745 4.62719873,11.4597125 4.67553289,11.4858204 L4.85636928,11.4556331 C5.26366995,12.687675 6.11734914,13.7312355 7.25641008,14.389508 L7.1814088,14.567368 C7.20890927,14.6359012 7.23890978,14.7297265 7.2180761,14.7974438 C7.13724139,15.0030435 6.99890572,15.2192495 6.84140302,15.4607476 C6.76556839,15.5717061 6.68723374,15.6581885 6.61806591,15.7862804 C6.60139896,15.8164677 6.58056527,15.8637882 6.56473166,15.8956072 C6.45806319,16.1199719 6.53639784,16.3777874 6.74223468,16.4748762 C6.94890485,16.5727808 7.20557589,16.469165 7.31724445,16.2448003 L7.31724445,16.2431686 C7.33391139,16.2113496 7.35557844,16.1697401 7.36891199,16.1395529 C7.42724632,16.0073816 7.44724666,15.8939755 7.48891403,15.7658836 C7.5989159,15.4950142 7.65975027,15.2110908 7.81141951,15.0340466 C7.85308688,14.9850943 7.91975469,14.9671452 7.99058923,14.9483801 L8.0847575,14.7811264 C9.32017386,15.2471757 10.6877777,15.2506617 11.9256561,14.7909169 L12.0139909,14.9475642 C12.0856588,14.9704086 12.1639935,14.9818308 12.2273279,15.0740244 C12.3406632,15.2633066 12.4181645,15.4876713 12.5123327,15.7593566 C12.5540001,15.8866326 12.5740005,16.0000388 12.6331681,16.13221 C12.6465017,16.1623973 12.6690021,16.2056385 12.6848357,16.2374575 C12.7956709,16.4626381 13.0531753,16.5654379 13.2598455,16.4675333 C13.4656823,16.3712604 13.5440169,16.1126291 13.4373485,15.8882644 C13.4206815,15.8564454 13.3998478,15.8099407 13.3831809,15.7789376 C13.3140131,15.6516616 13.2356784,15.565995 13.1598438,15.4542206 C13.0015077,15.2127226 12.8715055,15.012834 12.7906708,14.8072343 C12.7573369,14.701171 12.7965043,14.6359012 12.822338,14.567368 C12.8073378,14.5494188 12.7731705,14.4498825 12.7531702,14.4025619 C13.8964139,13.7391807 14.7506187,12.6874278 15.153211,11.4474744 C15.2065452,11.4556331 15.2998801,11.4719506 15.330714,11.4784775 C15.3932151,11.437684 15.450716,11.3854682 15.5640513,11.3936269 C15.7857217,11.4254459 16.0140589,11.5062172 16.2890636,11.60249 C16.4173991,11.6514424 16.5199009,11.7069216 16.6624033,11.7436359 C16.6924038,11.7517946 16.7357379,11.7591374 16.7707385,11.7664803 L16.7782386,11.7689279 L16.784072,11.7697438 C17.0315762,11.8219596 17.2707469,11.6897883 17.3215812,11.4719506 C17.371582,11.2549287 17.2149127,11.0338274 16.9690752,10.9759005 L16.9690752,10.9759005 Z M13.666519,7.62429937 L12.0414914,9.04881145 L12.0414914,9.05289082 C11.9391857,9.13977203 11.8941262,9.2747886 11.9242989,9.40404735 C11.9544717,9.5333061 12.0549629,9.63575698 12.1856605,9.67050573 L12.1881606,9.67866445 L14.2931964,10.2726191 C14.3389066,9.81559436 14.3085106,9.35433519 14.2031948,8.90684976 C14.0972946,8.4531745 13.9159886,8.01961283 13.666519,7.62348351 L13.666519,7.62429937 Z M10.3222955,11.9688165 C10.2566434,11.8475346 10.125707,11.7739202 9.98562314,11.7795342 C9.85507701,11.7843101 9.73698565,11.8567248 9.67561787,11.9696323 L9.67395117,11.9696323 L8.61726655,13.8396104 C9.51561238,14.1396676 10.4900831,14.1405282 11.3889803,13.842058 L10.330629,11.9688165 L10.3222955,11.9688165 L10.3222955,11.9688165 Z M11.8956556,10.9138943 C11.8193691,10.9001375 11.7405917,10.9104209 11.6706518,10.9432657 C11.4926606,11.0265329 11.4138587,11.2327452 11.4923154,11.4099443 L11.4898154,11.4132078 L12.3314963,13.4023031 C13.1357333,12.8996407 13.7459426,12.1489273 14.0656925,11.2687985 L11.898989,10.9098149 L11.8956556,10.9138943 Z" id="形状"></path>
        </g>
    </g>
</svg>