<?xml version="1.0" encoding="UTF-8"?>
<svg width="24px" height="24px" viewBox="0 0 24 24" version="1.1" xmlns="http://www.w3.org/2000/svg" xmlns:xlink="http://www.w3.org/1999/xlink">
    <title>命名空间</title>
    <g id="命名空间" stroke="none" stroke-width="1" fill="none" fill-rule="evenodd">
        <g id="编组" transform="translate(4.000000, 2.000000)" fill="#1272FF" fill-rule="nonzero">
            <path d="M1.89415041,0 C1.39179049,0 0.910005913,0.200679698 0.554783803,0.557891851 C0.199561694,0.915104004 0,1.39958765 0,1.90476192 L0,17.1428571 C0,17.6480314 0.199561694,18.1325151 0.554783803,18.4897272 C0.910005913,18.8469394 1.39179049,19.0476191 1.89415041,19.0476191 L5.68245126,19.0476191 L5.68245126,17.2380952 L15.1532033,7.71428571 L15.1532033,5.71428571 L9.47075209,0 L1.89415041,0 M8.52367689,1.42857143 L13.7325905,6.66666667 L8.52367689,6.66666667 L8.52367689,1.42857143 M15.2479109,10.4761905 C15.1054951,10.5000388 14.9735026,10.5664048 14.8690808,10.6666667 L13.9220056,11.6190476 L15.9108635,13.6190476 L16.8579387,12.6666667 C17.0473538,12.4476191 17.0473538,12.1238095 16.8579387,11.9047619 L15.626741,10.6666667 C15.5354501,10.5490236 15.3962755,10.4790465 15.2479109,10.4761905 M13.3537605,12.1904762 L7.57660167,18 L7.57660167,20 L9.56545961,20 L15.3426184,14.1904762 L13.3537605,12.1904762 L13.3537605,12.1904762 Z" id="形状"></path>
        </g>
    </g>
</svg>