<?xml version="1.0" encoding="UTF-8"?>
<svg width="24px" height="24px" viewBox="0 0 24 24" version="1.1" xmlns="http://www.w3.org/2000/svg" xmlns:xlink="http://www.w3.org/1999/xlink">
    <title>专线</title>
    <g id="专线" stroke="none" stroke-width="1" fill="none" fill-rule="evenodd">
        <g id="编组" transform="translate(2.000000, 3.000000)" fill="#1272FF" fill-rule="nonzero">
            <path d="M18.2552128,13.5324989 L18.2552128,1.00208619 C18.2552128,0.448647239 17.8114816,0 17.264107,0 L12.3080881,0 C11.7607135,0 11.3169823,0.448647239 11.3169823,1.00208619 L11.3169823,15.0330269 L8.60436626,15.0330269 L8.60436626,1.00208619 C8.60436626,0.448647239 8.16063509,0 7.61326048,0 L2.88069978,0 C2.33332517,0 1.889594,0.448647239 1.889594,1.00208619 L1.889594,13.513671 C0.79190454,13.8927049 0,14.9448334 0,16.1812765 C0,17.7355629 1.25058192,19 2.78783721,19 C4.3250925,19 5.57567442,17.7355629 5.57567442,16.1812765 C5.57567442,15.0156855 4.87222209,14.0128561 3.87205057,13.5845231 L3.87205057,2.00442011 L6.62190969,2.00442011 L6.62190969,16.0353608 C6.62190969,16.5887998 7.06564085,17.037447 7.61301546,17.037447 L12.3080881,17.037447 C12.8554627,17.037447 13.2991939,16.5887998 13.2991939,16.0353608 L13.2991939,2.00442011 L16.2727562,2.00442011 L16.2727562,13.4921181 C15.1963835,13.8827955 14.4245706,14.9247669 14.4245706,16.1456027 C14.4245706,17.6998892 15.6751525,18.9643262 17.2121628,18.9643262 C18.7494181,18.9643262 20,17.6998892 20,16.1456027 C20,14.9641567 19.2769461,13.9509225 18.2552128,13.5324989 L18.2552128,13.5324989 Z M2.78783721,16.9958276 C2.34386102,16.9958276 1.98245657,16.6304192 1.98245657,16.1815242 C1.98245657,15.7326292 2.34386102,15.3672208 2.78783721,15.3672208 C3.23181339,15.3672208 3.59321785,15.7326292 3.59321785,16.1815242 C3.59321785,16.6304192 3.23181339,16.9958276 2.78783721,16.9958276 Z M17.2121628,16.9599061 C16.7681866,16.9599061 16.4070272,16.5944977 16.4070272,16.1456027 C16.4070272,15.6967077 16.7681866,15.3312993 17.2121628,15.3312993 C17.656139,15.3312993 18.0175434,15.6967077 18.0175434,16.1456027 C18.0175434,16.5947454 17.656139,16.9599061 17.2121628,16.9599061 Z" id="形状"></path>
        </g>
    </g>
</svg>