<?xml version="1.0" encoding="UTF-8"?>
<svg width="24px" height="24px" viewBox="0 0 24 24" version="1.1" xmlns="http://www.w3.org/2000/svg" xmlns:xlink="http://www.w3.org/1999/xlink">
    <title>Node</title>
    <g id="Node" stroke="none" stroke-width="1" fill="none" fill-rule="evenodd">
        <g id="编组" transform="translate(2.000000, 2.000000)" fill-rule="nonzero">
            <path d="M10.3325428,0.0872738773 L14.2184453,2.27752204 C14.4315414,2.39763897 14.5633728,2.62334865 14.5633728,2.86805596 L14.5633728,7.2200801 C14.5633728,7.46478741 14.4315414,7.69049709 14.2184453,7.81061402 L10.3325428,10.0011258 C10.1261026,10.117491 9.87389738,10.117491 9.66745717,10.0011258 L5.78155469,7.81061402 C5.56845859,7.69049709 5.43662713,7.46478741 5.43662713,7.2200801 L5.43662713,2.86805596 C5.43662713,2.62334865 5.56845859,2.39763897 5.78155469,2.27752204 L9.66745717,0.0872738773 C9.87389738,-0.0290912924 10.1261026,-0.0290912924 10.3325428,0.0872738773 Z M4.89591568,8.99800902 L8.78181818,11.1882572 C8.99491428,11.3083741 9.12674572,11.5340838 9.12674572,11.7787911 L9.12674572,16.1300243 C9.1263699,16.3743543 8.99458607,16.5995722 8.78181818,16.7195037 L4.89617918,18.9126518 C4.68967107,19.0291161 4.43733815,19.0291161 4.23083004,18.9126518 L0.344664035,16.7195037 C0.131997736,16.5995042 0.000322155981,16.3742992 0,16.1300243 L0,11.7777366 C0,11.5330293 0.131831441,11.3073196 0.344927535,11.1872026 L4.23083004,8.99695449 C4.43727024,8.88058932 4.68947547,8.88058932 4.89591568,8.99695449 L4.89591568,8.99800902 Z M15.76917,8.99800902 L19.6550725,11.1882572 C19.8678404,11.3081887 19.9996242,11.5334066 20,11.7777366 L20,16.1300243 C19.9996778,16.3742992 19.8680023,16.5995042 19.655336,16.7195037 L15.7694335,18.9126518 C15.5629254,19.0291161 15.3105924,19.0291161 15.1040843,18.9126518 L11.2181818,16.7195037 C11.0052694,16.599365 10.8735178,16.3737913 10.8735178,16.1292334 L10.8735178,11.7777366 C10.8735178,11.5330293 11.0053492,11.3073196 11.2184453,11.1872026 L15.1040843,8.99695449 C15.3105245,8.88058932 15.5627298,8.88058932 15.76917,8.99695449 L15.76917,8.99800902 Z" id="形状" fill="#1272FF"></path>
            <path d="M14.9963109,13.7067262 L12.5125165,12.2567545 C12.4322644,12.2099483 12.3830198,12.1239071 12.3832903,12.0309699 C12.383563,11.9380326 12.4333097,11.852281 12.513834,11.8059451 L15.400527,10.1450684 C15.4808761,10.0988442 15.5797299,10.0988442 15.660079,10.1450684 L18.4980237,11.7787911 C18.5826714,11.8274421 18.6330016,11.9193824 18.6283925,12.0169415 C18.6237835,12.1145006 18.5650098,12.2012814 18.4761528,12.2417275 L15.2350461,13.7180623 C15.1583333,13.7532116 15.0693515,13.7489863 14.9963109,13.7067262 L14.9963109,13.7067262 Z M7.01212121,2.83562932 L9.87299077,1.18977963 C9.9533399,1.14355536 10.0521937,1.14355536 10.1325428,1.18977963 L12.9934124,2.83562932 C13.0761413,2.88326092 13.1261842,2.97236697 13.1238207,3.06783333 C13.1214571,3.16329969 13.0670662,3.24981771 12.9820817,3.29329312 L10.1206851,4.75723726 C10.0462234,4.79535119 9.95799268,4.79535119 9.88353095,4.75723726 L7.02292489,3.29329312 C6.9379404,3.2498177 6.88354944,3.16329968 6.88118592,3.06783332 C6.87882239,2.97236696 6.92886531,2.88326092 7.01159421,2.83562932 L7.01212121,2.83562932 Z M4.35546773,13.7141079 L1.49459815,12.2501637 C1.40961366,12.2066883 1.35522269,12.1201703 1.35285917,12.0247039 C1.35049565,11.9292376 1.40053857,11.8401315 1.48326746,11.7924999 L4.34413702,10.1466502 C4.42448615,10.100426 4.52333993,10.100426 4.60368906,10.1466502 L7.46455863,11.7924999 C7.54728753,11.8401315 7.59733044,11.9292376 7.59496692,12.0247039 C7.59260339,12.1201703 7.53821242,12.2066883 7.45322793,12.2501637 L4.59235837,13.7141079 C4.51796795,13.7521319 4.42985815,13.7521319 4.35546773,13.7141079 Z" id="形状" fill="#FFFFFF"></path>
        </g>
    </g>
</svg>