<?xml version="1.0" encoding="UTF-8"?>
<svg width="24px" height="24px" viewBox="0 0 24 24" version="1.1" xmlns="http://www.w3.org/2000/svg" xmlns:xlink="http://www.w3.org/1999/xlink">
    <title>Pod</title>
    <g id="Pod" stroke="none" stroke-width="1" fill="none" fill-rule="evenodd">
        <g id="编组" transform="translate(3.000000, 2.000000)" fill="#1272FF" fill-rule="nonzero">
            <path d="M2.49647741,5.24227035 C2.38458351,5.30477132 2.29258185,5.39727276 2.23041857,5.50977451 C2.04392872,5.84477972 2.16576875,6.26978634 2.49896395,6.45728925 L8.18068794,9.62983862 C8.59345213,9.8598422 9.09324492,9.86234224 9.51098218,9.63733874 L15.3966017,6.44978914 C15.5109822,6.38728816 15.6054704,6.29478672 15.6701202,6.18228497 C15.8590966,5.84727976 15.7422296,5.42227315 15.4115209,5.23227019 L9.68006631,1.94971911 C9.25735599,1.70721533 8.74015748,1.70721533 8.31496063,1.94721907 L2.49647741,5.24227035 Z M9.65520099,0.174691485 L17.3186904,4.51725906 C17.7389142,4.75476276 17.9975135,5.20226972 18,5.68477723 L18,14.3124115 C18,14.797419 17.7389142,15.242426 17.321177,15.4799297 L9.65520099,19.8274973 C9.24740986,20.0575009 8.75010361,20.0575009 8.34231247,19.8274973 L0.678823042,15.4799297 C0.258599254,15.242426 0,14.794919 0,14.3099115 L0,5.68477723 C0,5.19976968 0.261085785,4.75226272 0.681309573,4.51475902 L8.34479901,0.172191446 C8.75010361,-0.0578121328 9.24740986,-0.0578121328 9.65520099,0.174691485 Z" id="形状"></path>
        </g>
    </g>
</svg>