<?xml version="1.0" encoding="UTF-8"?>
<svg width="24px" height="24px" viewBox="0 0 24 24" version="1.1" xmlns="http://www.w3.org/2000/svg" xmlns:xlink="http://www.w3.org/1999/xlink">
    <title>2.图标/6.告警/危险</title>
    <g id="2.图标/6.告警/危险" stroke="none" stroke-width="1" fill="none" fill-rule="evenodd">
        <rect id="矩形" x="0" y="0" width="24" height="24"></rect>
        <path d="M12.3303504,2.11562265 L20.2516747,4.88808615 C20.6900297,5.04151041 20.9650601,5.47654366 20.9156486,5.93833649 L19.9161516,15.2794926 C19.890581,15.5184717 19.7797956,15.7402472 19.6040758,15.904221 L12.6822484,22.3633567 C12.2980612,22.7218628 11.7019388,22.7218628 11.3177516,22.3633567 L4.39592421,15.904221 C4.22020438,15.7402472 4.10941898,15.5184717 4.08384839,15.2794926 L3.08435143,5.93833649 C3.03493994,5.47654366 3.30997027,5.04151041 3.74832528,4.88808615 L11.6696496,2.11562265 C11.8835225,2.04076712 12.1164775,2.04076712 12.3303504,2.11562265 Z" id="多边形" fill="#FF4334"></path>
        <path d="M13,7.65685425 L12.999,10.6558542 L16,10.6568542 L16,12.6568542 L12.999,12.6558542 L13,15.6568542 L11,15.6568542 L10.999,12.6558542 L8,12.6568542 L8,10.6568542 L10.999,10.6558542 L11,7.65685425 L13,7.65685425 Z" id="形状结合" fill="#FFFFFF" transform="translate(12.000000, 11.656854) rotate(-315.000000) translate(-12.000000, -11.656854) "></path>
    </g>
</svg>