<?xml version="1.0" encoding="UTF-8"?>
<svg width="154px" height="154px" viewBox="0 0 154 154" version="1.1" xmlns="http://www.w3.org/2000/svg" xmlns:xlink="http://www.w3.org/1999/xlink">
    <title>3</title>
    <g id="3" stroke="none" stroke-width="1" fill="none" fill-rule="evenodd">
        <path d="M138,0 C146.836556,-1.623249e-15 154,7.163444 154,16 L154,138 C154,146.836556 146.836556,154 138,154 L16,154 C7.163444,154 4.63487968e-15,146.836556 0,138 L0,16 C-1.082166e-15,7.163444 7.163444,5.17596268e-15 16,0 L138,0 Z M76.9466836,115.542214 C75.3241552,117.202051 73.6181544,118.94726 71.8880352,120.717133 C71.9831899,120.851832 72.0975639,121.040031 72.2368101,121.206793 C73.825422,123.108519 75.4178024,125.00702 77.0874372,127 C78.8703154,124.856384 80.5699097,122.813129 82.3416708,120.682983 C80.4996271,118.927719 78.7350262,117.246255 76.9466836,115.542214 Z M126.967949,67.0949174 L125.943293,67.0949174 C117.463787,67.0989858 108.984093,67.1088511 100.504587,67.1042979 C96.3545245,67.1020212 92.406642,67.9929336 88.674883,69.809287 C85.538359,71.335942 82.7971508,73.4006352 80.2703703,76.2801642 C81.7672192,77.6956449 83.228079,79.0777354 84.6898808,80.4584978 C84.8707689,80.6294331 85.0574982,80.793918 85.3467307,81.0572456 C85.5792472,80.7794995 85.7277262,80.5751739 85.9025847,80.3972191 C91.345055,74.855008 97.8907542,72.8582335 105.369158,74.7601493 C115.704839,77.3890618 122.044778,87.9136284 119.611645,98.4273811 C117.851001,106.035234 113.055394,111.120796 105.578309,113.209014 C98.166797,115.279019 91.5687156,113.363064 86.1377392,107.881183 C78.4677075,100.1392 70.9322113,92.2623281 63.2719776,84.5106694 C59.9089666,81.1077104 55.7221611,79.8730303 51.0771058,80.8597499 C43.5374642,82.4613432 39.0864867,89.7899324 40.8974403,97.336317 C42.1928628,102.734533 46.8976489,106.877769 52.3450182,107.417514 C58.0906645,107.986666 63.5246557,104.973197 65.8826073,99.9064171 C66.1556352,99.3198112 66.4122702,98.725427 66.7054596,98.0699537 C66.9285549,98.2691569 67.0738307,98.3841256 67.2027134,98.5155996 C71.6776209,103.082664 76.2527705,107.555439 80.6038827,112.239179 C90.099942,122.461147 105.192038,123.662626 115.652834,116.03675 C124.50919,109.580481 128.114139,100.67648 126.703023,89.8153545 C126.04184,84.7271368 123.869864,80.2065532 120.450513,76.3551026 C119.96155,75.8043533 119.982842,75.4558426 120.45805,74.9327921 C121.304644,74.0009007 122.082463,73.0054541 122.886285,72.0341016 C124.203188,70.4431324 125.517829,68.8500763 126.967949,67.0949174 L126.967949,67.0949174 Z M53.5855713,67.1108241 C45.1388514,67.0859712 36.6921314,67.0990617 28.2454115,67.0994411 C27.9565558,67.0994411 27.6677001,67.1383331 27.2488312,67.1684982 C29.4383307,69.8110703 31.5006433,72.3547997 33.6332385,74.8370607 C34.1904115,75.4857041 34.1303039,75.8560323 33.6181645,76.4858937 C26.6093164,85.1028529 25.092306,94.7188634 29.4262715,104.880501 C35.7924016,119.806509 53.6172267,125.387801 67.5388261,117.128649 C69.8466566,115.759649 71.8954026,114.063197 73.7521435,111.941399 C72.0689421,110.347015 70.4309628,108.795507 68.6744641,107.131496 C68.5446393,107.292756 68.3801442,107.525539 68.1875737,107.731952 C59.8985656,116.618499 45.5190932,115.891123 38.1492227,106.214783 C31.5304145,97.5245924 33.0425259,85.267907 41.5808204,78.3990028 C49.6007575,71.9469075 60.9192643,72.8114492 68.3141954,80.4145593 C75.7370134,88.0461269 83.1860225,95.651893 90.6137395,103.278718 C93.5588237,106.302811 97.1176084,107.761927 101.307994,107.423661 C106.381905,107.013872 110.151914,104.460087 112.346501,99.8560282 C114.503215,95.3316503 114.221708,90.7837474 111.44696,86.5968766 C108.541633,82.2130792 104.312055,80.1529391 99.1049278,80.6520853 C93.7054184,81.1698238 89.9546286,84.1516104 87.8244829,89.1819644 C87.7214144,89.4253716 87.6077941,89.6644154 87.4527202,90.0078037 C87.0645645,89.6367167 86.7647802,89.3663696 86.4827079,89.078189 C82.0784598,84.5758183 77.6581956,80.0890044 73.2782544,75.5625396 C67.8755418,69.9787804 61.3240014,67.1335902 53.5855713,67.1108241 Z M100.431629,87.5331314 C103.935393,87.5837859 106.851649,90.5758173 106.800962,94.0673743 C106.749719,97.6018073 103.959749,100.430705 100.499186,100.513133 L100.499186,100.513133 L100.267511,100.514537 C96.7294527,100.473368 93.8339243,97.4616063 93.9089175,93.900423 C93.9833454,90.3568835 96.9280527,87.4822872 100.431629,87.5331314 Z M53.8198214,87.5265906 C57.2977717,87.5190164 60.2470012,90.4805033 60.253419,93.9872377 C60.2598594,97.5207428 57.5111748,100.37994 54.0386201,100.50881 L54.0386201,100.50881 L53.8060664,100.513333 C50.2928806,100.519773 47.3786981,97.6057155 47.3624251,94.0699544 C47.3461006,90.5044077 50.2770529,87.5343835 53.8198214,87.5265906 Z M87.6299213,67.4112386 L66.6325459,67.4112386 L77.1312336,75.2934863 L87.6299213,67.4112386 Z M102.123454,52.3103983 L52.8267717,52.3103983 L52.826,56.376 L32.3297333,56.3760918 L27,64.2583395 L127,64.2583395 L122.644637,56.3760918 L102.123,56.376 L102.123454,52.3103983 Z M98.8016425,33.676757 C97.1954086,28.6496483 97.1954086,26.9235984 91.4126592,28.6496483 C87.5574929,29.8003482 81.4992746,32.4756973 73.2380044,36.6756956 L73.2380044,36.6756956 L77.2917,33.676757 L76.8353591,33.4402207 C70.6449477,30.2465058 66.3507095,28.6496483 63.9526444,28.6496483 C63.8135942,28.6496483 63.6769912,28.6493246 63.5427423,28.648984 L63.5427423,28.648984 L62.9541981,28.6483727 C59.8966891,28.6555481 58.114645,28.9180452 56.3200972,33.676757 C54.9991106,37.1796977 53.8346687,42.6026866 52.8267717,49.9457239 L52.8267717,49.9457239 L102.123454,49.9457239 L102.022633,49.2898142 C100.914634,42.1339445 99.8409703,36.9295921 98.8016425,33.676757 Z" id="形状结合" fill="#FFFFFF"></path>
        <g id="编组-2" transform="translate(27.000000, 28.000000)">
            <g id="编组" transform="translate(0.000000, 39.094917)"></g>
        </g>
        <path d="M76.9763334,127.062501 C75.0597163,124.975207 73.2317814,122.986864 71.4081724,120.995143 C71.2483282,120.82049 71.1170352,120.623384 71.0078047,120.48231 C72.9938535,118.628683 74.9522161,116.800885 76.8147587,115.062501 C78.8676436,116.847181 80.8932749,118.608217 83.0078047,120.446545 C80.9739541,122.677495 79.0229456,124.817443 76.9763334,127.062501" id="Fill-5" fill="#FFC05D"></path>
    </g>
</svg>