<?xml version="1.0" encoding="UTF-8"?>
<svg width="24px" height="24px" viewBox="0 0 24 24" version="1.1" xmlns="http://www.w3.org/2000/svg" xmlns:xlink="http://www.w3.org/1999/xlink">
    <title>2.图标/6.告警/提醒</title>
    <g id="2.图标/6.告警/提醒" stroke="none" stroke-width="1" fill="none" fill-rule="evenodd">
        <rect id="矩形" x="0" y="0" width="24" height="24"></rect>
        <path d="M13.7819347,3.88722409 L22.7639634,18.9770323 C23.3289328,19.926181 23.017494,21.1536163 22.0683453,21.7185858 C21.758909,21.9027741 21.4054834,22 21.0453776,22 L3.08132024,22 C1.97675074,22 1.08132024,21.1045695 1.08132024,20 C1.08132024,19.6398942 1.17854617,19.2864686 1.36273447,18.9770323 L10.3447632,3.88722409 C10.9097326,2.93807538 12.1371679,2.62663657 13.0863166,3.19160604 C13.3724886,3.36194651 13.6115942,3.60105211 13.7819347,3.88722409 Z" id="形状" fill="#FFD62D"></path>
        <path d="M13,12.5 L13,18.5 L11,18.5 L11,12.5 L13,12.5 Z M13,9 L13,11 L11,11 L11,9 L13,9 Z" id="形状结合备份" fill="#FFFFFF" transform="translate(12.000000, 13.750000) scale(1, -1) translate(-12.000000, -13.750000) "></path>
    </g>
</svg>