<?xml version="1.0" encoding="UTF-8"?>
<svg width="24px" height="24px" viewBox="0 0 24 24" version="1.1" xmlns="http://www.w3.org/2000/svg" xmlns:xlink="http://www.w3.org/1999/xlink">
    <title>2.图标/6.告警/预警</title>
    <g id="2.图标/6.告警/预警" stroke="none" stroke-width="1" fill="none" fill-rule="evenodd">
        <rect id="矩形" x="0" y="0" width="24" height="24"></rect>
        <path d="M12.0000741,6 C15.9898261,6 19.2392676,9.11008056 19.3676494,12.994233 L19.3715895,13.2329856 L19.371,19.818 L21.5,19.8181818 C21.7761424,19.8181818 22,20.0420394 22,20.3181818 L22,21.5 C22,21.7761424 21.7761424,22 21.5,22 L2.5,22 C2.22385763,22 2,21.7761424 2,21.5 L2,20.3181818 C2,20.0420394 2.22385763,19.8181818 2.5,19.8181818 L4.628,19.818 L4.6285586,13.2329856 C4.6285586,9.31821131 7.79820503,6.12983526 11.7567488,6.00386613 L12.0000741,6 Z M4.32111548,3.57699329 L6.5939587,5.92161052 L5.07872989,7.48468866 L2.80588666,5.14007144 L4.32111548,3.57699329 Z M19.6998453,3.57699329 L21.2150741,5.14007144 L18.9422309,7.48468866 L17.427002,5.92161052 L19.6998453,3.57699329 Z M13,1 L13,4 L11,4 L11,1 L13,1 Z" id="形状结合" fill="#FF951B" fill-rule="nonzero"></path>
        <path d="M14.9191942,13.1916403 L12.578738,13.1916403 L13.0173432,10.2917841 C13.0265633,10.2162003 12.9829885,10.1436749 12.9096563,10.1125514 C12.8363241,10.0814279 12.7501455,10.0988835 12.6966823,10.1556898 L8.94089515,14.3013326 C8.89531027,14.3531437 8.88533935,14.425186 8.91528564,14.4863678 C8.94523193,14.5475495 9.00973392,14.5869168 9.08095395,14.5874796 L11.4214101,14.5874796 L10.9828049,17.4873358 C10.9735848,17.5629196 11.0171597,17.635445 11.0904919,17.6665686 C11.1638241,17.6976921 11.2500027,17.6802364 11.3034659,17.6234302 L15.059253,13.4777874 C15.1048379,13.4259763 15.1148088,13.3539339 15.0848625,13.2927521 C15.0549162,13.2315704 14.9904142,13.1922031 14.9191942,13.1916403 L14.9191942,13.1916403 Z" id="路径" fill="#FFFFFF"></path>
    </g>
</svg>